<?xml version="1.0" encoding="UTF-8"?>
<svg width="1200pt" height="1200pt" version="1.1" viewBox="0 0 1200 1200" xmlns="http://www.w3.org/2000/svg">
 <g>
  <path d="m112.5 731.25c-0.089844 27.82 8.7031 54.941 25.094 77.418 16.395 22.477 39.535 39.137 66.051 47.551l22.367 65.211c1.6992 4.9609 5.4023 8.9844 10.203 11.094 4.8008 2.1055 10.27 2.1055 15.07 0 4.8008-2.1094 8.5039-6.1328 10.203-11.094l22.367-65.211c30.91-9.918 57.047-30.941 73.363-59.004 16.312-28.066 21.652-61.18 14.977-92.949-6.6719-31.766-24.879-59.938-51.109-79.062-26.227-19.129-58.613-27.859-90.898-24.504-32.289 3.3555-62.188 18.555-83.926 42.668-21.734 24.109-33.762 55.422-33.762 87.883zm225 0c0.066406 21.176-7.0703 41.746-20.234 58.328-13.164 16.586-31.578 28.203-52.215 32.945-6.293 1.4688-11.391 6.0742-13.48 12.188l-7.8203 22.801-7.8203-22.801c-2.0898-6.1133-7.1875-10.719-13.48-12.188-23.008-5.3672-43.141-19.223-56.371-38.801-13.23-19.574-18.582-43.422-14.984-66.773 3.5977-23.352 15.879-44.48 34.391-59.168 18.508-14.684 41.879-21.836 65.438-20.031 23.559 1.8086 45.562 12.445 61.617 29.781 16.051 17.336 24.969 40.094 24.961 63.719z"/>
  <path d="m63.207 151.33c-5.7773-2.3086-12.324-1.6016-17.477 1.8906-5.1484 3.4883-8.2344 9.3047-8.2305 15.527v862.5c0 3.75 1.1211 7.4141 3.2227 10.52 2.1055 3.1055 5.0898 5.5078 8.5703 6.8984l281.25 112.5c4.6172 1.8438 9.7773 1.7734 14.344-0.1875l255.11-109.33 255.11 109.33c4.5664 1.9609 9.7266 2.0312 14.344 0.1875l281.25-112.5c3.4805-1.3906 6.4648-3.793 8.5703-6.8984 2.1016-3.1055 3.2227-6.7695 3.2227-10.52v-862.5c0.003906-6.2227-3.082-12.039-8.2305-15.527-5.1523-3.4922-11.699-4.1992-17.477-1.8906l-68.848 27.543c0.26172-3.375 0.80469-6.6758 0.80469-10.125 0.015625-42.285-20.34-81.988-54.684-106.65-34.344-24.668-78.469-31.277-118.54-17.758-40.062 13.523-71.16 45.516-83.535 85.949-12.375 40.434-4.5117 84.352 21.121 117.98l-225.73-96.75c-4.7188-2.0078-10.055-2.0078-14.773 0l-255.38 109.45zm874.29-76.332c30.848-0.066406 59.746 15.078 77.242 40.484 17.5 25.406 21.344 57.805 10.281 86.602 0 0.16797-0.24219 0.30078-0.32031 0.48828h0.003906c-4.1016 10.496-10.039 20.18-17.531 28.594l-1.2383 1.3125c-4.4141 4.7578-9.3086 9.043-14.605 12.789-0.54297 0.375-1.0117 0.82422-1.5742 1.1992-1.875 1.2188-3.75 2.2305-5.625 3.3359-2.3633 1.3516-4.7617 2.6641-7.2734 3.75-1.5547 0.73047-3.1133 1.4453-4.7266 2.082-4.3398 1.7695-8.8008 3.2188-13.352 4.332-6.293 1.4688-11.387 6.0742-13.48 12.188l-7.8008 22.855-7.8203-22.801c-2.0898-6.1133-7.1875-10.719-13.48-12.188-3.6523-0.94141-7.2461-2.1094-10.762-3.4844-2.4375-0.95703-4.8945-1.875-7.5938-3.207-0.16016-0.046875-0.32422-0.085937-0.48828-0.11328-25.836-12.215-44.676-35.566-51.156-63.402-6.4766-27.832 0.11719-57.102 17.902-79.473 17.789-22.367 44.82-35.387 73.398-35.344zm-581.25 218.61 225-96.43v102.82h37.5v-102.82l236.36 101.25c4.5742 1.9531 9.7383 2.0195 14.363 0.1875l20.023-7.9883c1.5391 0.63672 3.0195 1.1445 4.5195 1.6875 1.1641 0.41406 2.2109 1.0117 3.375 1.3867l22.367 65.211v0.003906c1.6992 4.9609 5.4023 8.9805 10.203 11.09 4.8008 2.1055 10.27 2.1055 15.07 0 4.8008-2.1094 8.5039-6.1289 10.203-11.09l22.367-65.211 0.63672-0.26172v-0.003906c5.3633-1.7891 10.598-3.9336 15.676-6.4141 2.0625-0.97656 4.0703-1.9883 6.0547-3.0547 3.3945-1.875 6.6562-3.8828 9.8438-6h0.003906c3.8203-2.543 7.5039-5.2852 11.043-8.2109 1.5547-1.293 3.1328-2.5703 4.6328-3.9375 2.8516-2.5703 5.625-5.2305 8.1953-8.043l0.48828-0.5625-0.003907-0.003906c5.7383-6.2891 10.844-13.129 15.242-20.418 0.24219-0.41406 0.52344-0.80469 0.76953-1.2383 2.2656-3.7812 4.332-7.6797 6.1875-11.68l68.625-27.414v822.09l-243.75 97.5v-84.805h-37.5v84.074l-225-96.43v-100.14h-37.5v100.14l-225 96.43v-46.574h-37.5v47.305l-243.75-97.5v-822.11l243.75 97.5v99.805h37.5z"/>
  <path d="m421.88 581.25h225c7.4609 0 14.613 2.9648 19.887 8.2383 5.2734 5.2734 8.2383 12.426 8.2383 19.887 0 17.406 6.9141 34.098 19.223 46.402 12.305 12.309 28.996 19.223 46.402 19.223h187.5c7.4609 0 14.613 2.9648 19.887 8.2383 5.2734 5.2734 8.2383 12.426 8.2383 19.887v37.5c0 7.4609-2.9648 14.613-8.2383 19.887-5.2734 5.2734-12.426 8.2383-19.887 8.2383h-393.75c-17.406 0-34.098 6.9141-46.402 19.223-12.309 12.305-19.223 28.996-19.223 46.402v131.25c0 7.4609-2.9648 14.613-8.2383 19.887-5.2734 5.2734-12.426 8.2383-19.887 8.2383h-164.57c-5.5391-9.6016-15.047-16.254-25.961-18.18-10.918-1.9258-22.125 1.0781-30.617 8.2031-8.4922 7.125-13.395 17.641-13.395 28.727s4.9023 21.602 13.395 28.727c8.4922 7.125 19.699 10.129 30.617 8.2031 10.914-1.9258 20.422-8.5781 25.961-18.18h164.57c17.406 0 34.098-6.9141 46.402-19.223 12.309-12.305 19.223-28.996 19.223-46.402v-131.25c0-7.4609 2.9648-14.613 8.2383-19.887 5.2734-5.2734 12.426-8.2383 19.887-8.2383h393.75c17.406 0 34.098-6.9141 46.402-19.223 12.309-12.305 19.223-28.996 19.223-46.402v-37.5c0-17.406-6.9141-34.098-19.223-46.402-12.305-12.309-28.996-19.223-46.402-19.223h-187.5c-7.4609 0-14.613-2.9648-19.887-8.2383-5.2734-5.2734-8.2383-12.426-8.2383-19.887 0-17.406-6.9141-34.098-19.223-46.402-12.305-12.309-28.996-19.223-46.402-19.223h-225c-7.4609 0-14.613-2.9648-19.887-8.2383-5.2734-5.2734-8.2383-12.426-8.2383-19.887v-18.75c0-7.4609 2.9648-14.613 8.2383-19.887 5.2734-5.2734 12.426-8.2383 19.887-8.2383h483.32c5.5391 9.6016 15.047 16.254 25.961 18.18 10.918 1.9258 22.125-1.0781 30.617-8.2031 8.4922-7.125 13.395-17.641 13.395-28.727s-4.9023-21.602-13.395-28.727c-8.4922-7.125-19.699-10.129-30.617-8.2031-10.914 1.9258-20.422 8.5781-25.961 18.18h-483.32c-17.406 0-34.098 6.9141-46.402 19.223-12.309 12.305-19.223 28.996-19.223 46.402v18.75c0 17.406 6.9141 34.098 19.223 46.402 12.305 12.309 28.996 19.223 46.402 19.223z"/>
  <path d="m187.5 731.25c0 14.918 5.9258 29.227 16.477 39.773 10.547 10.551 24.855 16.477 39.773 16.477s29.227-5.9258 39.773-16.477c10.551-10.547 16.477-24.855 16.477-39.773s-5.9258-29.227-16.477-39.773c-10.547-10.551-24.855-16.477-39.773-16.477s-29.227 5.9258-39.773 16.477c-10.551 10.547-16.477 24.855-16.477 39.773zm75 0c0 4.9727-1.9766 9.7422-5.4922 13.258-3.5156 3.5156-8.2852 5.4922-13.258 5.4922s-9.7422-1.9766-13.258-5.4922c-3.5156-3.5156-5.4922-8.2852-5.4922-13.258s1.9766-9.7422 5.4922-13.258c3.5156-3.5156 8.2852-5.4922 13.258-5.4922s9.7422 1.9766 13.258 5.4922c3.5156 3.5156 5.4922 8.2852 5.4922 13.258z"/>
  <path d="m937.5 225c14.918 0 29.227-5.9258 39.773-16.477 10.551-10.547 16.477-24.855 16.477-39.773s-5.9258-29.227-16.477-39.773c-10.547-10.551-24.855-16.477-39.773-16.477s-29.227 5.9258-39.773 16.477c-10.551 10.547-16.477 24.855-16.477 39.773s5.9258 29.227 16.477 39.773c10.547 10.551 24.855 16.477 39.773 16.477zm0-75c4.9727 0 9.7422 1.9766 13.258 5.4922 3.5156 3.5156 5.4922 8.2852 5.4922 13.258s-1.9766 9.7422-5.4922 13.258c-3.5156 3.5156-8.2852 5.4922-13.258 5.4922s-9.7422-1.9766-13.258-5.4922c-3.5156-3.5156-5.4922-8.2852-5.4922-13.258s1.9766-9.7422 5.4922-13.258c3.5156-3.5156 8.2852-5.4922 13.258-5.4922z"/>
 </g>
</svg>
